<svg viewBox="0 0 1182.72 665.28"><path fill="#fff" d="M0 0h1182.72v665.28H0z" class="bg"/><svg xmlns="http://www.w3.org/2000/svg" width="24.64" height="24.64" data-name="Layer 1" transform="translate(36.96 36.96)" viewBox="0 0 100 100"><circle cx="50" cy="50" r="50" fill="#3D348B"/></svg><svg xmlns="http://www.w3.org/2000/svg" width="24.64" height="24.64" data-name="Layer 1" transform="rotate(-90 98.56 -36.96)" viewBox="0 0 100 100"><path fill="#480CDD" d="M50 .5A49.5 49.5 0 1 0 99.5 50 49.562 49.562 0 0 0 50 .5ZM33.59 92.44l58.84-58.87a43.807 43.807 0 0 1 2.21 7.64L41.21 94.64a44.449 44.449 0 0 1-7.62-2.2ZM15.48 79.61l64.17-64.1a46.076 46.076 0 0 1 4.84 4.84l-64.1 64.17a45.525 45.525 0 0 1-4.91-4.91ZM36.41 6.58 6.57 36.44A45.645 45.645 0 0 1 36.41 6.58ZM50 4.5c1.29 0 2.57.05 3.84.16L4.66 53.83c-.11-1.26-.16-2.54-.16-3.83a46.241 46.241 0 0 1 .43-6.26L43.7 4.94A45.139 45.139 0 0 1 50 4.5ZM32.075 32.075 58.79 5.36a43.807 43.807 0 0 1 7.64 2.21L7.56 66.41a44.449 44.449 0 0 1-2.2-7.62ZM9.29 70.33 70.35 9.3a45.9 45.9 0 0 1 6.13 3.72L12.99 76.45a46.727 46.727 0 0 1-3.7-6.12Zm14.26 16.68 63.43-63.49a45.9 45.9 0 0 1 3.72 6.13L29.67 90.71a46.727 46.727 0 0 1-6.12-3.7Zm71.79-40.85c.11 1.27.16 2.55.16 3.84a45.139 45.139 0 0 1-.44 6.3l-38.8 38.77a46.241 46.241 0 0 1-6.26.43c-1.29 0-2.57-.05-3.83-.16ZM63.57 93.43 93.42 63.6a45.657 45.657 0 0 1-29.85 29.83Z"/></svg><svg xmlns="http://www.w3.org/2000/svg" width="24.64" height="24.64" data-name="Layer 1" transform="rotate(180 129.36 30.8)" viewBox="0 0 100 100"><circle cx="56.47" cy="56.47" r="43.53" fill="#F18701"/><circle cx="46.53" cy="46.53" r="43.53" fill="none" stroke="#C9CB38" stroke-linecap="round" stroke-linejoin="round" stroke-width="6"/></svg><svg xmlns="http://www.w3.org/2000/svg" width="24.64" height="24.64" data-name="Layer 1" transform="rotate(90 61.6 197.12)" viewBox="0 0 100 100"><path fill="#99D120" d="M12.94 76.735a43.53 43.53 0 1 1 87.06 0"/><path fill="none" stroke="#98D345" stroke-linecap="round" stroke-miterlimit="10" stroke-width="6" d="M90.06 66.8A43.53 43.53 0 0 0 3 66.8Z"/></svg><svg xmlns="http://www.w3.org/2000/svg" width="24.64" height="24.64" data-name="Layer 1" transform="rotate(-90 197.12 -135.52)" viewBox="0 0 100 100"><path fill="#99D120" d="M12.94 76.735a43.53 43.53 0 1 1 87.06 0"/><path fill="none" stroke="#98D345" stroke-linecap="round" stroke-miterlimit="10" stroke-width="6" d="M90.06 66.8A43.53 43.53 0 0 0 3 66.8Z"/></svg><svg xmlns="http://www.w3.org/2000/svg" width="24.64" height="24.64" data-name="Layer 1" transform="rotate(90 110.88 246.4)" viewBox="0 0 100 100"><path fill="#F7B801" d="M15.284 15.284H100V100H15.284z"/><path fill="none" stroke="#54C491" stroke-miterlimit="10" stroke-width="6" d="M3 3h84.716v84.716H3z"/></svg><svg xmlns="http://www.w3.org/2000/svg" width="24.64" height="24.64" data-name="Layer 1" transform="rotate(180 227.92 80.08)" viewBox="0 0 100 100"><path fill="#480CDD" d="M50 .5A49.5 49.5 0 1 0 99.5 50 49.562 49.562 0 0 0 50 .5ZM33.59 92.44l58.84-58.87a43.807 43.807 0 0 1 2.21 7.64L41.21 94.64a44.449 44.449 0 0 1-7.62-2.2ZM15.48 79.61l64.17-64.1a46.076 46.076 0 0 1 4.84 4.84l-64.1 64.17a45.525 45.525 0 0 1-4.91-4.91ZM36.41 6.58 6.57 36.44A45.645 45.645 0 0 1 36.41 6.58ZM50 4.5c1.29 0 2.57.05 3.84.16L4.66 53.83c-.11-1.26-.16-2.54-.16-3.83a46.241 46.241 0 0 1 .43-6.26L43.7 4.94A45.139 45.139 0 0 1 50 4.5ZM32.075 32.075 58.79 5.36a43.807 43.807 0 0 1 7.64 2.21L7.56 66.41a44.449 44.449 0 0 1-2.2-7.62ZM9.29 70.33 70.35 9.3a45.9 45.9 0 0 1 6.13 3.72L12.99 76.45a46.727 46.727 0 0 1-3.7-6.12Zm14.26 16.68 63.43-63.49a45.9 45.9 0 0 1 3.72 6.13L29.67 90.71a46.727 46.727 0 0 1-6.12-3.7Zm71.79-40.85c.11 1.27.16 2.55.16 3.84a45.139 45.139 0 0 1-.44 6.3l-38.8 38.77a46.241 46.241 0 0 1-6.26.43c-1.29 0-2.57-.05-3.83-.16ZM63.57 93.43 93.42 63.6a45.657 45.657 0 0 1-29.85 29.83Z"/></svg><svg xmlns="http://www.w3.org/2000/svg" width="24.64" height="24.64" data-name="Layer 1" transform="rotate(180 277.2 80.08)" viewBox="0 0 100 100"><path fill="#99D120" d="M12.94 76.735a43.53 43.53 0 1 1 87.06 0"/><path fill="none" stroke="#98D345" stroke-linecap="round" stroke-miterlimit="10" stroke-width="6" d="M90.06 66.8A43.53 43.53 0 0 0 3 66.8Z"/></svg><svg xmlns="http://www.w3.org/2000/svg" width="24.64" height="24.64" data-name="Layer 1" transform="rotate(180 326.48 30.8)" viewBox="0 0 100 100"><circle cx="50" cy="50" r="50" fill="#3D348B"/></svg><svg xmlns="http://www.w3.org/2000/svg" width="24.64" height="24.64" data-name="Layer 1" transform="translate(726.88 135.52)" viewBox="0 0 100 100"><path fill="#480CDD" d="M50 .5A49.5 49.5 0 1 0 99.5 50 49.562 49.562 0 0 0 50 .5ZM33.59 92.44l58.84-58.87a43.807 43.807 0 0 1 2.21 7.64L41.21 94.64a44.449 44.449 0 0 1-7.62-2.2ZM15.48 79.61l64.17-64.1a46.076 46.076 0 0 1 4.84 4.84l-64.1 64.17a45.525 45.525 0 0 1-4.91-4.91ZM36.41 6.58 6.57 36.44A45.645 45.645 0 0 1 36.41 6.58ZM50 4.5c1.29 0 2.57.05 3.84.16L4.66 53.83c-.11-1.26-.16-2.54-.16-3.83a46.241 46.241 0 0 1 .43-6.26L43.7 4.94A45.139 45.139 0 0 1 50 4.5ZM32.075 32.075 58.79 5.36a43.807 43.807 0 0 1 7.64 2.21L7.56 66.41a44.449 44.449 0 0 1-2.2-7.62ZM9.29 70.33 70.35 9.3a45.9 45.9 0 0 1 6.13 3.72L12.99 76.45a46.727 46.727 0 0 1-3.7-6.12Zm14.26 16.68 63.43-63.49a45.9 45.9 0 0 1 3.72 6.13L29.67 90.71a46.727 46.727 0 0 1-6.12-3.7Zm71.79-40.85c.11 1.27.16 2.55.16 3.84a45.139 45.139 0 0 1-.44 6.3l-38.8 38.77a46.241 46.241 0 0 1-6.26.43c-1.29 0-2.57-.05-3.83-.16ZM63.57 93.43 93.42 63.6a45.657 45.657 0 0 1-29.85 29.83Z"/></svg><svg xmlns="http://www.w3.org/2000/svg" width="24.64" height="24.64" data-name="Layer 1" transform="rotate(90 357.28 492.8)" viewBox="0 0 100 100"><path fill="#EE6197" d="M96.535 63.178c-5.516 0-8.358-3.454-10.433-5.975-1.917-2.331-2.935-3.45-5.082-3.45s-3.164 1.119-5.081 3.449c-2.075 2.522-4.918 5.976-10.433 5.976s-8.357-3.454-10.432-5.978c-1.917-2.33-2.934-3.449-5.081-3.449s-3.162 1.119-5.079 3.449c-2.076 2.524-4.914 5.978-10.432 5.978s-8.355-3.455-10.43-5.976c-1.915-2.33-2.932-3.449-5.077-3.449S15.814 54.872 13.9 57.2c-2.076 2.521-4.917 5.976-10.432 5.976A3.466 3.466 0 0 1 0 59.713v-5s6.628.415 8.544-1.915c2.076-2.522 4.918-5.976 10.431-5.976s8.355 3.455 10.43 5.976c1.916 2.33 2.932 3.449 5.077 3.449s3.163-1.119 5.079-3.449c2.076-2.522 4.918-5.976 10.432-5.976s8.357 3.454 10.432 5.978c1.917 2.33 2.935 3.449 5.081 3.449s3.165-1.119 5.082-3.45c2.075-2.521 4.918-5.975 10.432-5.975s8.358 3.454 10.433 5.975C93.37 55.128 100 54.713 100 54.713v5a3.466 3.466 0 0 1-3.465 3.465Z"/><path fill="#EA8577" d="M96.535 58.178c-5.516 0-8.358-3.454-10.433-5.975-1.917-2.331-2.935-3.45-5.082-3.45s-3.164 1.119-5.081 3.449c-2.075 2.522-4.918 5.976-10.433 5.976s-8.357-3.454-10.432-5.978c-1.917-2.33-2.934-3.449-5.081-3.449s-3.162 1.119-5.079 3.449c-2.076 2.524-4.914 5.978-10.432 5.978s-8.355-3.455-10.43-5.976c-1.915-2.33-2.932-3.449-5.077-3.449S15.814 49.872 13.9 52.2c-2.076 2.521-4.917 5.976-10.432 5.976a3.466 3.466 0 0 1 0-6.931c2.147 0 3.163-1.119 5.079-3.449 2.076-2.522 4.918-5.976 10.431-5.976s8.355 3.455 10.43 5.976c1.916 2.33 2.932 3.449 5.077 3.449s3.163-1.119 5.079-3.449c2.076-2.522 4.918-5.976 10.432-5.976s8.354 3.456 10.429 5.98c1.917 2.33 2.935 3.449 5.081 3.449s3.165-1.119 5.082-3.45c2.075-2.521 4.918-5.975 10.432-5.975s8.358 3.454 10.433 5.975c1.917 2.331 2.934 3.45 5.082 3.45a3.466 3.466 0 0 1 0 6.931Z"/></svg><svg xmlns="http://www.w3.org/2000/svg" width="24.64" height="24.64" data-name="Layer 1" transform="rotate(180 474.32 30.8)" viewBox="0 0 100 100"><path fill="#EE6197" d="M96.535 63.178c-5.516 0-8.358-3.454-10.433-5.975-1.917-2.331-2.935-3.45-5.082-3.45s-3.164 1.119-5.081 3.449c-2.075 2.522-4.918 5.976-10.433 5.976s-8.357-3.454-10.432-5.978c-1.917-2.33-2.934-3.449-5.081-3.449s-3.162 1.119-5.079 3.449c-2.076 2.524-4.914 5.978-10.432 5.978s-8.355-3.455-10.43-5.976c-1.915-2.33-2.932-3.449-5.077-3.449S15.814 54.872 13.9 57.2c-2.076 2.521-4.917 5.976-10.432 5.976A3.466 3.466 0 0 1 0 59.713v-5s6.628.415 8.544-1.915c2.076-2.522 4.918-5.976 10.431-5.976s8.355 3.455 10.43 5.976c1.916 2.33 2.932 3.449 5.077 3.449s3.163-1.119 5.079-3.449c2.076-2.522 4.918-5.976 10.432-5.976s8.357 3.454 10.432 5.978c1.917 2.33 2.935 3.449 5.081 3.449s3.165-1.119 5.082-3.45c2.075-2.521 4.918-5.975 10.432-5.975s8.358 3.454 10.433 5.975C93.37 55.128 100 54.713 100 54.713v5a3.466 3.466 0 0 1-3.465 3.465Z"/><path fill="#EA8577" d="M96.535 58.178c-5.516 0-8.358-3.454-10.433-5.975-1.917-2.331-2.935-3.45-5.082-3.45s-3.164 1.119-5.081 3.449c-2.075 2.522-4.918 5.976-10.433 5.976s-8.357-3.454-10.432-5.978c-1.917-2.33-2.934-3.449-5.081-3.449s-3.162 1.119-5.079 3.449c-2.076 2.524-4.914 5.978-10.432 5.978s-8.355-3.455-10.43-5.976c-1.915-2.33-2.932-3.449-5.077-3.449S15.814 49.872 13.9 52.2c-2.076 2.521-4.917 5.976-10.432 5.976a3.466 3.466 0 0 1 0-6.931c2.147 0 3.163-1.119 5.079-3.449 2.076-2.522 4.918-5.976 10.431-5.976s8.355 3.455 10.43 5.976c1.916 2.33 2.932 3.449 5.077 3.449s3.163-1.119 5.079-3.449c2.076-2.522 4.918-5.976 10.432-5.976s8.354 3.456 10.429 5.98c1.917 2.33 2.935 3.449 5.081 3.449s3.165-1.119 5.082-3.45c2.075-2.521 4.918-5.975 10.432-5.975s8.358 3.454 10.433 5.975c1.917 2.331 2.934 3.45 5.082 3.45a3.466 3.466 0 0 1 0 6.931Z"/></svg><svg xmlns="http://www.w3.org/2000/svg" width="24.64" height="24.64" data-name="Layer 1" transform="rotate(90 455.84 591.36)" viewBox="0 0 100 100"><circle cx="56.47" cy="56.47" r="43.53" fill="#F18701"/><circle cx="46.53" cy="46.53" r="43.53" fill="none" stroke="#C9CB38" stroke-linecap="round" stroke-linejoin="round" stroke-width="6"/></svg><svg xmlns="http://www.w3.org/2000/svg" width="24.64" height="24.64" data-name="Layer 1" transform="translate(1121.12 135.52)" viewBox="0 0 100 100"><path fill="#99D120" d="M12.94 76.735a43.53 43.53 0 1 1 87.06 0"/><path fill="none" stroke="#98D345" stroke-linecap="round" stroke-miterlimit="10" stroke-width="6" d="M90.06 66.8A43.53 43.53 0 0 0 3 66.8Z"/></svg><svg xmlns="http://www.w3.org/2000/svg" width="24.64" height="24.64" data-name="Layer 1" transform="translate(36.96 234.08)" viewBox="0 0 100 100"><circle cx="50" cy="50" r="50" fill="#3D348B"/></svg><svg xmlns="http://www.w3.org/2000/svg" width="24.64" height="24.64" data-name="Layer 1" transform="rotate(-90 197.12 61.6)" viewBox="0 0 100 100"><path fill="#480CDD" d="M50 .5A49.5 49.5 0 1 0 99.5 50 49.562 49.562 0 0 0 50 .5ZM33.59 92.44l58.84-58.87a43.807 43.807 0 0 1 2.21 7.64L41.21 94.64a44.449 44.449 0 0 1-7.62-2.2ZM15.48 79.61l64.17-64.1a46.076 46.076 0 0 1 4.84 4.84l-64.1 64.17a45.525 45.525 0 0 1-4.91-4.91ZM36.41 6.58 6.57 36.44A45.645 45.645 0 0 1 36.41 6.58ZM50 4.5c1.29 0 2.57.05 3.84.16L4.66 53.83c-.11-1.26-.16-2.54-.16-3.83a46.241 46.241 0 0 1 .43-6.26L43.7 4.94A45.139 45.139 0 0 1 50 4.5ZM32.075 32.075 58.79 5.36a43.807 43.807 0 0 1 7.64 2.21L7.56 66.41a44.449 44.449 0 0 1-2.2-7.62ZM9.29 70.33 70.35 9.3a45.9 45.9 0 0 1 6.13 3.72L12.99 76.45a46.727 46.727 0 0 1-3.7-6.12Zm14.26 16.68 63.43-63.49a45.9 45.9 0 0 1 3.72 6.13L29.67 90.71a46.727 46.727 0 0 1-6.12-3.7Zm71.79-40.85c.11 1.27.16 2.55.16 3.84a45.139 45.139 0 0 1-.44 6.3l-38.8 38.77a46.241 46.241 0 0 1-6.26.43c-1.29 0-2.57-.05-3.83-.16ZM63.57 93.43 93.42 63.6a45.657 45.657 0 0 1-29.85 29.83Z"/></svg><svg xmlns="http://www.w3.org/2000/svg" width="24.64" height="24.64" data-name="Layer 1" transform="rotate(180 80.08 178.64)" viewBox="0 0 100 100"><path fill="#F7B801" d="M15.284 15.284H100V100H15.284z"/><path fill="none" stroke="#54C491" stroke-miterlimit="10" stroke-width="6" d="M3 3h84.716v84.716H3z"/></svg><svg xmlns="http://www.w3.org/2000/svg" width="24.64" height="24.64" data-name="Layer 1" transform="translate(234.08 332.64)" viewBox="0 0 100 100"><circle cx="50" cy="50" r="50" fill="#3D348B"/></svg><svg xmlns="http://www.w3.org/2000/svg" width="24.64" height="24.64" data-name="Layer 1" transform="translate(332.64 234.08)" viewBox="0 0 100 100"><circle cx="50" cy="50" r="50" fill="#3D348B"/></svg><svg xmlns="http://www.w3.org/2000/svg" width="24.64" height="24.64" data-name="Layer 1" transform="rotate(-90 344.96 -86.24)" viewBox="0 0 100 100"><path fill="#480CDD" d="M50 .5A49.5 49.5 0 1 0 99.5 50 49.562 49.562 0 0 0 50 .5ZM33.59 92.44l58.84-58.87a43.807 43.807 0 0 1 2.21 7.64L41.21 94.64a44.449 44.449 0 0 1-7.62-2.2ZM15.48 79.61l64.17-64.1a46.076 46.076 0 0 1 4.84 4.84l-64.1 64.17a45.525 45.525 0 0 1-4.91-4.91ZM36.41 6.58 6.57 36.44A45.645 45.645 0 0 1 36.41 6.58ZM50 4.5c1.29 0 2.57.05 3.84.16L4.66 53.83c-.11-1.26-.16-2.54-.16-3.83a46.241 46.241 0 0 1 .43-6.26L43.7 4.94A45.139 45.139 0 0 1 50 4.5ZM32.075 32.075 58.79 5.36a43.807 43.807 0 0 1 7.64 2.21L7.56 66.41a44.449 44.449 0 0 1-2.2-7.62ZM9.29 70.33 70.35 9.3a45.9 45.9 0 0 1 6.13 3.72L12.99 76.45a46.727 46.727 0 0 1-3.7-6.12Zm14.26 16.68 63.43-63.49a45.9 45.9 0 0 1 3.72 6.13L29.67 90.71a46.727 46.727 0 0 1-6.12-3.7Zm71.79-40.85c.11 1.27.16 2.55.16 3.84a45.139 45.139 0 0 1-.44 6.3l-38.8 38.77a46.241 46.241 0 0 1-6.26.43c-1.29 0-2.57-.05-3.83-.16ZM63.57 93.43 93.42 63.6a45.657 45.657 0 0 1-29.85 29.83Z"/></svg><svg xmlns="http://www.w3.org/2000/svg" width="24.64" height="24.64" data-name="Layer 1" transform="rotate(-90 394.24 -135.52)" viewBox="0 0 100 100"><path fill="#F7B801" d="M15.284 15.284H100V100H15.284z"/><path fill="none" stroke="#54C491" stroke-miterlimit="10" stroke-width="6" d="M3 3h84.716v84.716H3z"/></svg><svg xmlns="http://www.w3.org/2000/svg" width="24.64" height="24.64" data-name="Layer 1" transform="rotate(180 178.64 178.64)" viewBox="0 0 100 100"><path fill="#F7B801" d="M15.284 15.284H100V100H15.284z"/><path fill="none" stroke="#54C491" stroke-miterlimit="10" stroke-width="6" d="M3 3h84.716v84.716H3z"/></svg><svg xmlns="http://www.w3.org/2000/svg" width="24.64" height="24.64" data-name="Layer 1" transform="rotate(180 227.92 178.64)" viewBox="0 0 100 100"><path fill="#F7B801" d="M15.284 15.284H100V100H15.284z"/><path fill="none" stroke="#54C491" stroke-miterlimit="10" stroke-width="6" d="M3 3h84.716v84.716H3z"/></svg><svg xmlns="http://www.w3.org/2000/svg" width="24.64" height="24.64" data-name="Layer 1" transform="rotate(90 110.88 443.52)" viewBox="0 0 100 100"><circle cx="56.47" cy="56.47" r="43.53" fill="#F18701"/><circle cx="46.53" cy="46.53" r="43.53" fill="none" stroke="#C9CB38" stroke-linecap="round" stroke-linejoin="round" stroke-width="6"/></svg><svg xmlns="http://www.w3.org/2000/svg" width="24.64" height="24.64" data-name="Layer 1" transform="rotate(-90 443.52 -184.8)" viewBox="0 0 100 100"><path fill="#99D120" d="M12.94 76.735a43.53 43.53 0 1 1 87.06 0"/><path fill="none" stroke="#98D345" stroke-linecap="round" stroke-miterlimit="10" stroke-width="6" d="M90.06 66.8A43.53 43.53 0 0 0 3 66.8Z"/></svg><svg xmlns="http://www.w3.org/2000/svg" width="24.64" height="24.64" data-name="Layer 1" transform="rotate(90 308 542.08)" viewBox="0 0 100 100"><path fill="#F7B801" d="M15.284 15.284H100V100H15.284z"/><path fill="none" stroke="#54C491" stroke-miterlimit="10" stroke-width="6" d="M3 3h84.716v84.716H3z"/></svg><svg xmlns="http://www.w3.org/2000/svg" width="24.64" height="24.64" data-name="Layer 1" transform="rotate(90 160.16 492.8)" viewBox="0 0 100 100"><path fill="#480CDD" d="M50 .5A49.5 49.5 0 1 0 99.5 50 49.562 49.562 0 0 0 50 .5ZM33.59 92.44l58.84-58.87a43.807 43.807 0 0 1 2.21 7.64L41.21 94.64a44.449 44.449 0 0 1-7.62-2.2ZM15.48 79.61l64.17-64.1a46.076 46.076 0 0 1 4.84 4.84l-64.1 64.17a45.525 45.525 0 0 1-4.91-4.91ZM36.41 6.58 6.57 36.44A45.645 45.645 0 0 1 36.41 6.58ZM50 4.5c1.29 0 2.57.05 3.84.16L4.66 53.83c-.11-1.26-.16-2.54-.16-3.83a46.241 46.241 0 0 1 .43-6.26L43.7 4.94A45.139 45.139 0 0 1 50 4.5ZM32.075 32.075 58.79 5.36a43.807 43.807 0 0 1 7.64 2.21L7.56 66.41a44.449 44.449 0 0 1-2.2-7.62ZM9.29 70.33 70.35 9.3a45.9 45.9 0 0 1 6.13 3.72L12.99 76.45a46.727 46.727 0 0 1-3.7-6.12Zm14.26 16.68 63.43-63.49a45.9 45.9 0 0 1 3.72 6.13L29.67 90.71a46.727 46.727 0 0 1-6.12-3.7Zm71.79-40.85c.11 1.27.16 2.55.16 3.84a45.139 45.139 0 0 1-.44 6.3l-38.8 38.77a46.241 46.241 0 0 1-6.26.43c-1.29 0-2.57-.05-3.83-.16ZM63.57 93.43 93.42 63.6a45.657 45.657 0 0 1-29.85 29.83Z"/></svg><svg xmlns="http://www.w3.org/2000/svg" width="24.64" height="24.64" data-name="Layer 1" transform="rotate(-90 542.08 -184.8)" viewBox="0 0 100 100"><path fill="#99D120" d="M12.94 76.735a43.53 43.53 0 1 1 87.06 0"/><path fill="none" stroke="#98D345" stroke-linecap="round" stroke-miterlimit="10" stroke-width="6" d="M90.06 66.8A43.53 43.53 0 0 0 3 66.8Z"/></svg><svg xmlns="http://www.w3.org/2000/svg" width="24.64" height="24.64" data-name="Layer 1" transform="rotate(90 258.72 591.36)" viewBox="0 0 100 100"><path fill="#99D120" d="M12.94 76.735a43.53 43.53 0 1 1 87.06 0"/><path fill="none" stroke="#98D345" stroke-linecap="round" stroke-miterlimit="10" stroke-width="6" d="M90.06 66.8A43.53 43.53 0 0 0 3 66.8Z"/></svg><svg xmlns="http://www.w3.org/2000/svg" width="24.64" height="24.64" data-name="Layer 1" transform="rotate(180 474.32 129.36)" viewBox="0 0 100 100"><path fill="#99D120" d="M12.94 76.735a43.53 43.53 0 1 1 87.06 0"/><path fill="none" stroke="#98D345" stroke-linecap="round" stroke-miterlimit="10" stroke-width="6" d="M90.06 66.8A43.53 43.53 0 0 0 3 66.8Z"/></svg><svg xmlns="http://www.w3.org/2000/svg" width="24.64" height="24.64" data-name="Layer 1" transform="rotate(180 523.6 129.36)" viewBox="0 0 100 100"><path fill="#480CDD" d="M50 .5A49.5 49.5 0 1 0 99.5 50 49.562 49.562 0 0 0 50 .5ZM33.59 92.44l58.84-58.87a43.807 43.807 0 0 1 2.21 7.64L41.21 94.64a44.449 44.449 0 0 1-7.62-2.2ZM15.48 79.61l64.17-64.1a46.076 46.076 0 0 1 4.84 4.84l-64.1 64.17a45.525 45.525 0 0 1-4.91-4.91ZM36.41 6.58 6.57 36.44A45.645 45.645 0 0 1 36.41 6.58ZM50 4.5c1.29 0 2.57.05 3.84.16L4.66 53.83c-.11-1.26-.16-2.54-.16-3.83a46.241 46.241 0 0 1 .43-6.26L43.7 4.94A45.139 45.139 0 0 1 50 4.5ZM32.075 32.075 58.79 5.36a43.807 43.807 0 0 1 7.64 2.21L7.56 66.41a44.449 44.449 0 0 1-2.2-7.62ZM9.29 70.33 70.35 9.3a45.9 45.9 0 0 1 6.13 3.72L12.99 76.45a46.727 46.727 0 0 1-3.7-6.12Zm14.26 16.68 63.43-63.49a45.9 45.9 0 0 1 3.72 6.13L29.67 90.71a46.727 46.727 0 0 1-6.12-3.7Zm71.79-40.85c.11 1.27.16 2.55.16 3.84a45.139 45.139 0 0 1-.44 6.3l-38.8 38.77a46.241 46.241 0 0 1-6.26.43c-1.29 0-2.57-.05-3.83-.16ZM63.57 93.43 93.42 63.6a45.657 45.657 0 0 1-29.85 29.83Z"/></svg><svg xmlns="http://www.w3.org/2000/svg" width="24.64" height="24.64" data-name="Layer 1" transform="rotate(-90 689.92 -431.2)" viewBox="0 0 100 100"><path fill="#F7B801" d="M15.284 15.284H100V100H15.284z"/><path fill="none" stroke="#54C491" stroke-miterlimit="10" stroke-width="6" d="M3 3h84.716v84.716H3z"/></svg><svg xmlns="http://www.w3.org/2000/svg" width="24.64" height="24.64" data-name="Layer 1" transform="rotate(-90 689.92 -332.64)" viewBox="0 0 100 100"><path fill="#480CDD" d="M50 .5A49.5 49.5 0 1 0 99.5 50 49.562 49.562 0 0 0 50 .5ZM33.59 92.44l58.84-58.87a43.807 43.807 0 0 1 2.21 7.64L41.21 94.64a44.449 44.449 0 0 1-7.62-2.2ZM15.48 79.61l64.17-64.1a46.076 46.076 0 0 1 4.84 4.84l-64.1 64.17a45.525 45.525 0 0 1-4.91-4.91ZM36.41 6.58 6.57 36.44A45.645 45.645 0 0 1 36.41 6.58ZM50 4.5c1.29 0 2.57.05 3.84.16L4.66 53.83c-.11-1.26-.16-2.54-.16-3.83a46.241 46.241 0 0 1 .43-6.26L43.7 4.94A45.139 45.139 0 0 1 50 4.5ZM32.075 32.075 58.79 5.36a43.807 43.807 0 0 1 7.64 2.21L7.56 66.41a44.449 44.449 0 0 1-2.2-7.62ZM9.29 70.33 70.35 9.3a45.9 45.9 0 0 1 6.13 3.72L12.99 76.45a46.727 46.727 0 0 1-3.7-6.12Zm14.26 16.68 63.43-63.49a45.9 45.9 0 0 1 3.72 6.13L29.67 90.71a46.727 46.727 0 0 1-6.12-3.7Zm71.79-40.85c.11 1.27.16 2.55.16 3.84a45.139 45.139 0 0 1-.44 6.3l-38.8 38.77a46.241 46.241 0 0 1-6.26.43c-1.29 0-2.57-.05-3.83-.16ZM63.57 93.43 93.42 63.6a45.657 45.657 0 0 1-29.85 29.83Z"/></svg><svg xmlns="http://www.w3.org/2000/svg" width="24.64" height="24.64" data-name="Layer 1" transform="rotate(90 406.56 739.2)" viewBox="0 0 100 100"><path fill="#EE6197" d="M96.535 63.178c-5.516 0-8.358-3.454-10.433-5.975-1.917-2.331-2.935-3.45-5.082-3.45s-3.164 1.119-5.081 3.449c-2.075 2.522-4.918 5.976-10.433 5.976s-8.357-3.454-10.432-5.978c-1.917-2.33-2.934-3.449-5.081-3.449s-3.162 1.119-5.079 3.449c-2.076 2.524-4.914 5.978-10.432 5.978s-8.355-3.455-10.43-5.976c-1.915-2.33-2.932-3.449-5.077-3.449S15.814 54.872 13.9 57.2c-2.076 2.521-4.917 5.976-10.432 5.976A3.466 3.466 0 0 1 0 59.713v-5s6.628.415 8.544-1.915c2.076-2.522 4.918-5.976 10.431-5.976s8.355 3.455 10.43 5.976c1.916 2.33 2.932 3.449 5.077 3.449s3.163-1.119 5.079-3.449c2.076-2.522 4.918-5.976 10.432-5.976s8.357 3.454 10.432 5.978c1.917 2.33 2.935 3.449 5.081 3.449s3.165-1.119 5.082-3.45c2.075-2.521 4.918-5.975 10.432-5.975s8.358 3.454 10.433 5.975C93.37 55.128 100 54.713 100 54.713v5a3.466 3.466 0 0 1-3.465 3.465Z"/><path fill="#EA8577" d="M96.535 58.178c-5.516 0-8.358-3.454-10.433-5.975-1.917-2.331-2.935-3.45-5.082-3.45s-3.164 1.119-5.081 3.449c-2.075 2.522-4.918 5.976-10.433 5.976s-8.357-3.454-10.432-5.978c-1.917-2.33-2.934-3.449-5.081-3.449s-3.162 1.119-5.079 3.449c-2.076 2.524-4.914 5.978-10.432 5.978s-8.355-3.455-10.43-5.976c-1.915-2.33-2.932-3.449-5.077-3.449S15.814 49.872 13.9 52.2c-2.076 2.521-4.917 5.976-10.432 5.976a3.466 3.466 0 0 1 0-6.931c2.147 0 3.163-1.119 5.079-3.449 2.076-2.522 4.918-5.976 10.431-5.976s8.355 3.455 10.43 5.976c1.916 2.33 2.932 3.449 5.077 3.449s3.163-1.119 5.079-3.449c2.076-2.522 4.918-5.976 10.432-5.976s8.354 3.456 10.429 5.98c1.917 2.33 2.935 3.449 5.081 3.449s3.165-1.119 5.082-3.45c2.075-2.521 4.918-5.975 10.432-5.975s8.358 3.454 10.433 5.975c1.917 2.331 2.934 3.45 5.082 3.45a3.466 3.466 0 0 1 0 6.931Z"/></svg><svg xmlns="http://www.w3.org/2000/svg" width="24.64" height="24.64" data-name="Layer 1" transform="rotate(90 -184.8 246.4)" viewBox="0 0 100 100"><path fill="#99D120" d="M12.94 76.735a43.53 43.53 0 1 1 87.06 0"/><path fill="none" stroke="#98D345" stroke-linecap="round" stroke-miterlimit="10" stroke-width="6" d="M90.06 66.8A43.53 43.53 0 0 0 3 66.8Z"/></svg><svg xmlns="http://www.w3.org/2000/svg" width="24.64" height="24.64" data-name="Layer 1" transform="rotate(180 80.08 227.92)" viewBox="0 0 100 100"><path fill="#480CDD" d="M50 .5A49.5 49.5 0 1 0 99.5 50 49.562 49.562 0 0 0 50 .5ZM33.59 92.44l58.84-58.87a43.807 43.807 0 0 1 2.21 7.64L41.21 94.64a44.449 44.449 0 0 1-7.62-2.2ZM15.48 79.61l64.17-64.1a46.076 46.076 0 0 1 4.84 4.84l-64.1 64.17a45.525 45.525 0 0 1-4.91-4.91ZM36.41 6.58 6.57 36.44A45.645 45.645 0 0 1 36.41 6.58ZM50 4.5c1.29 0 2.57.05 3.84.16L4.66 53.83c-.11-1.26-.16-2.54-.16-3.83a46.241 46.241 0 0 1 .43-6.26L43.7 4.94A45.139 45.139 0 0 1 50 4.5ZM32.075 32.075 58.79 5.36a43.807 43.807 0 0 1 7.64 2.21L7.56 66.41a44.449 44.449 0 0 1-2.2-7.62ZM9.29 70.33 70.35 9.3a45.9 45.9 0 0 1 6.13 3.72L12.99 76.45a46.727 46.727 0 0 1-3.7-6.12Zm14.26 16.68 63.43-63.49a45.9 45.9 0 0 1 3.72 6.13L29.67 90.71a46.727 46.727 0 0 1-6.12-3.7Zm71.79-40.85c.11 1.27.16 2.55.16 3.84a45.139 45.139 0 0 1-.44 6.3l-38.8 38.77a46.241 46.241 0 0 1-6.26.43c-1.29 0-2.57-.05-3.83-.16ZM63.57 93.43 93.42 63.6a45.657 45.657 0 0 1-29.85 29.83Z"/></svg><svg xmlns="http://www.w3.org/2000/svg" width="24.64" height="24.64" data-name="Layer 1" transform="rotate(-90 344.96 110.88)" viewBox="0 0 100 100"><path fill="#99D120" d="M12.94 76.735a43.53 43.53 0 1 1 87.06 0"/><path fill="none" stroke="#98D345" stroke-linecap="round" stroke-miterlimit="10" stroke-width="6" d="M90.06 66.8A43.53 43.53 0 0 0 3 66.8Z"/></svg><svg xmlns="http://www.w3.org/2000/svg" width="24.64" height="24.64" data-name="Layer 1" transform="translate(36.96 529.76)" viewBox="0 0 100 100"><circle cx="50" cy="50" r="50" fill="#3D348B"/></svg><svg xmlns="http://www.w3.org/2000/svg" width="24.64" height="24.64" data-name="Layer 1" transform="rotate(-90 344.96 209.44)" viewBox="0 0 100 100"><path fill="#480CDD" d="M50 .5A49.5 49.5 0 1 0 99.5 50 49.562 49.562 0 0 0 50 .5ZM33.59 92.44l58.84-58.87a43.807 43.807 0 0 1 2.21 7.64L41.21 94.64a44.449 44.449 0 0 1-7.62-2.2ZM15.48 79.61l64.17-64.1a46.076 46.076 0 0 1 4.84 4.84l-64.1 64.17a45.525 45.525 0 0 1-4.91-4.91ZM36.41 6.58 6.57 36.44A45.645 45.645 0 0 1 36.41 6.58ZM50 4.5c1.29 0 2.57.05 3.84.16L4.66 53.83c-.11-1.26-.16-2.54-.16-3.83a46.241 46.241 0 0 1 .43-6.26L43.7 4.94A45.139 45.139 0 0 1 50 4.5ZM32.075 32.075 58.79 5.36a43.807 43.807 0 0 1 7.64 2.21L7.56 66.41a44.449 44.449 0 0 1-2.2-7.62ZM9.29 70.33 70.35 9.3a45.9 45.9 0 0 1 6.13 3.72L12.99 76.45a46.727 46.727 0 0 1-3.7-6.12Zm14.26 16.68 63.43-63.49a45.9 45.9 0 0 1 3.72 6.13L29.67 90.71a46.727 46.727 0 0 1-6.12-3.7Zm71.79-40.85c.11 1.27.16 2.55.16 3.84a45.139 45.139 0 0 1-.44 6.3l-38.8 38.77a46.241 46.241 0 0 1-6.26.43c-1.29 0-2.57-.05-3.83-.16ZM63.57 93.43 93.42 63.6a45.657 45.657 0 0 1-29.85 29.83Z"/></svg><svg xmlns="http://www.w3.org/2000/svg" width="24.64" height="24.64" data-name="Layer 1" transform="rotate(180 129.36 277.2)" viewBox="0 0 100 100"><path fill="#99D120" d="M12.94 76.735a43.53 43.53 0 1 1 87.06 0"/><path fill="none" stroke="#98D345" stroke-linecap="round" stroke-miterlimit="10" stroke-width="6" d="M90.06 66.8A43.53 43.53 0 0 0 3 66.8Z"/></svg><svg xmlns="http://www.w3.org/2000/svg" width="24.64" height="24.64" data-name="Layer 1" transform="rotate(180 178.64 227.92)" viewBox="0 0 100 100"><circle cx="50" cy="50" r="50" fill="#3D348B"/></svg><svg xmlns="http://www.w3.org/2000/svg" width="24.64" height="24.64" data-name="Layer 1" transform="rotate(180 227.92 227.92)" viewBox="0 0 100 100"><path fill="#480CDD" d="M50 .5A49.5 49.5 0 1 0 99.5 50 49.562 49.562 0 0 0 50 .5ZM33.59 92.44l58.84-58.87a43.807 43.807 0 0 1 2.21 7.64L41.21 94.64a44.449 44.449 0 0 1-7.62-2.2ZM15.48 79.61l64.17-64.1a46.076 46.076 0 0 1 4.84 4.84l-64.1 64.17a45.525 45.525 0 0 1-4.91-4.91ZM36.41 6.58 6.57 36.44A45.645 45.645 0 0 1 36.41 6.58ZM50 4.5c1.29 0 2.57.05 3.84.16L4.66 53.83c-.11-1.26-.16-2.54-.16-3.83a46.241 46.241 0 0 1 .43-6.26L43.7 4.94A45.139 45.139 0 0 1 50 4.5ZM32.075 32.075 58.79 5.36a43.807 43.807 0 0 1 7.64 2.21L7.56 66.41a44.449 44.449 0 0 1-2.2-7.62ZM9.29 70.33 70.35 9.3a45.9 45.9 0 0 1 6.13 3.72L12.99 76.45a46.727 46.727 0 0 1-3.7-6.12Zm14.26 16.68 63.43-63.49a45.9 45.9 0 0 1 3.72 6.13L29.67 90.71a46.727 46.727 0 0 1-6.12-3.7Zm71.79-40.85c.11 1.27.16 2.55.16 3.84a45.139 45.139 0 0 1-.44 6.3l-38.8 38.77a46.241 46.241 0 0 1-6.26.43c-1.29 0-2.57-.05-3.83-.16ZM63.57 93.43 93.42 63.6a45.657 45.657 0 0 1-29.85 29.83Z"/></svg><svg xmlns="http://www.w3.org/2000/svg" width="24.64" height="24.64" data-name="Layer 1" transform="rotate(-90 492.8 -36.96)" viewBox="0 0 100 100"><path fill="#EE6197" d="M96.535 63.178c-5.516 0-8.358-3.454-10.433-5.975-1.917-2.331-2.935-3.45-5.082-3.45s-3.164 1.119-5.081 3.449c-2.075 2.522-4.918 5.976-10.433 5.976s-8.357-3.454-10.432-5.978c-1.917-2.33-2.934-3.449-5.081-3.449s-3.162 1.119-5.079 3.449c-2.076 2.524-4.914 5.978-10.432 5.978s-8.355-3.455-10.43-5.976c-1.915-2.33-2.932-3.449-5.077-3.449S15.814 54.872 13.9 57.2c-2.076 2.521-4.917 5.976-10.432 5.976A3.466 3.466 0 0 1 0 59.713v-5s6.628.415 8.544-1.915c2.076-2.522 4.918-5.976 10.431-5.976s8.355 3.455 10.43 5.976c1.916 2.33 2.932 3.449 5.077 3.449s3.163-1.119 5.079-3.449c2.076-2.522 4.918-5.976 10.432-5.976s8.357 3.454 10.432 5.978c1.917 2.33 2.935 3.449 5.081 3.449s3.165-1.119 5.082-3.45c2.075-2.521 4.918-5.975 10.432-5.975s8.358 3.454 10.433 5.975C93.37 55.128 100 54.713 100 54.713v5a3.466 3.466 0 0 1-3.465 3.465Z"/><path fill="#EA8577" d="M96.535 58.178c-5.516 0-8.358-3.454-10.433-5.975-1.917-2.331-2.935-3.45-5.082-3.45s-3.164 1.119-5.081 3.449c-2.075 2.522-4.918 5.976-10.433 5.976s-8.357-3.454-10.432-5.978c-1.917-2.33-2.934-3.449-5.081-3.449s-3.162 1.119-5.079 3.449c-2.076 2.524-4.914 5.978-10.432 5.978s-8.355-3.455-10.43-5.976c-1.915-2.33-2.932-3.449-5.077-3.449S15.814 49.872 13.9 52.2c-2.076 2.521-4.917 5.976-10.432 5.976a3.466 3.466 0 0 1 0-6.931c2.147 0 3.163-1.119 5.079-3.449 2.076-2.522 4.918-5.976 10.431-5.976s8.355 3.455 10.43 5.976c1.916 2.33 2.932 3.449 5.077 3.449s3.163-1.119 5.079-3.449c2.076-2.522 4.918-5.976 10.432-5.976s8.354 3.456 10.429 5.98c1.917 2.33 2.935 3.449 5.081 3.449s3.165-1.119 5.082-3.45c2.075-2.521 4.918-5.975 10.432-5.975s8.358 3.454 10.433 5.975c1.917 2.331 2.934 3.45 5.082 3.45a3.466 3.466 0 0 1 0 6.931Z"/></svg><svg xmlns="http://www.w3.org/2000/svg" width="24.64" height="24.64" data-name="Layer 1" transform="rotate(180 178.64 277.2)" viewBox="0 0 100 100"><circle cx="50" cy="50" r="50" fill="#3D348B"/></svg><svg xmlns="http://www.w3.org/2000/svg" width="24.64" height="24.64" data-name="Layer 1" transform="rotate(180 227.92 277.2)" viewBox="0 0 100 100"><path fill="#EE6197" d="M96.535 63.178c-5.516 0-8.358-3.454-10.433-5.975-1.917-2.331-2.935-3.45-5.082-3.45s-3.164 1.119-5.081 3.449c-2.075 2.522-4.918 5.976-10.433 5.976s-8.357-3.454-10.432-5.978c-1.917-2.33-2.934-3.449-5.081-3.449s-3.162 1.119-5.079 3.449c-2.076 2.524-4.914 5.978-10.432 5.978s-8.355-3.455-10.43-5.976c-1.915-2.33-2.932-3.449-5.077-3.449S15.814 54.872 13.9 57.2c-2.076 2.521-4.917 5.976-10.432 5.976A3.466 3.466 0 0 1 0 59.713v-5s6.628.415 8.544-1.915c2.076-2.522 4.918-5.976 10.431-5.976s8.355 3.455 10.43 5.976c1.916 2.33 2.932 3.449 5.077 3.449s3.163-1.119 5.079-3.449c2.076-2.522 4.918-5.976 10.432-5.976s8.357 3.454 10.432 5.978c1.917 2.33 2.935 3.449 5.081 3.449s3.165-1.119 5.082-3.45c2.075-2.521 4.918-5.975 10.432-5.975s8.358 3.454 10.433 5.975C93.37 55.128 100 54.713 100 54.713v5a3.466 3.466 0 0 1-3.465 3.465Z"/><path fill="#EA8577" d="M96.535 58.178c-5.516 0-8.358-3.454-10.433-5.975-1.917-2.331-2.935-3.45-5.082-3.45s-3.164 1.119-5.081 3.449c-2.075 2.522-4.918 5.976-10.433 5.976s-8.357-3.454-10.432-5.978c-1.917-2.33-2.934-3.449-5.081-3.449s-3.162 1.119-5.079 3.449c-2.076 2.524-4.914 5.978-10.432 5.978s-8.355-3.455-10.43-5.976c-1.915-2.33-2.932-3.449-5.077-3.449S15.814 49.872 13.9 52.2c-2.076 2.521-4.917 5.976-10.432 5.976a3.466 3.466 0 0 1 0-6.931c2.147 0 3.163-1.119 5.079-3.449 2.076-2.522 4.918-5.976 10.431-5.976s8.355 3.455 10.43 5.976c1.916 2.33 2.932 3.449 5.077 3.449s3.163-1.119 5.079-3.449c2.076-2.522 4.918-5.976 10.432-5.976s8.354 3.456 10.429 5.98c1.917 2.33 2.935 3.449 5.081 3.449s3.165-1.119 5.082-3.45c2.075-2.521 4.918-5.975 10.432-5.975s8.358 3.454 10.433 5.975c1.917 2.331 2.934 3.45 5.082 3.45a3.466 3.466 0 0 1 0 6.931Z"/></svg><svg xmlns="http://www.w3.org/2000/svg" width="24.64" height="24.64" data-name="Layer 1" transform="translate(529.76 529.76)" viewBox="0 0 100 100"><path fill="#99D120" d="M12.94 76.735a43.53 43.53 0 1 1 87.06 0"/><path fill="none" stroke="#98D345" stroke-linecap="round" stroke-miterlimit="10" stroke-width="6" d="M90.06 66.8A43.53 43.53 0 0 0 3 66.8Z"/></svg><svg xmlns="http://www.w3.org/2000/svg" width="24.64" height="24.64" data-name="Layer 1" transform="rotate(-90 542.08 -86.24)" viewBox="0 0 100 100"><path fill="#EE6197" d="M96.535 63.178c-5.516 0-8.358-3.454-10.433-5.975-1.917-2.331-2.935-3.45-5.082-3.45s-3.164 1.119-5.081 3.449c-2.075 2.522-4.918 5.976-10.433 5.976s-8.357-3.454-10.432-5.978c-1.917-2.33-2.934-3.449-5.081-3.449s-3.162 1.119-5.079 3.449c-2.076 2.524-4.914 5.978-10.432 5.978s-8.355-3.455-10.43-5.976c-1.915-2.33-2.932-3.449-5.077-3.449S15.814 54.872 13.9 57.2c-2.076 2.521-4.917 5.976-10.432 5.976A3.466 3.466 0 0 1 0 59.713v-5s6.628.415 8.544-1.915c2.076-2.522 4.918-5.976 10.431-5.976s8.355 3.455 10.43 5.976c1.916 2.33 2.932 3.449 5.077 3.449s3.163-1.119 5.079-3.449c2.076-2.522 4.918-5.976 10.432-5.976s8.357 3.454 10.432 5.978c1.917 2.33 2.935 3.449 5.081 3.449s3.165-1.119 5.082-3.45c2.075-2.521 4.918-5.975 10.432-5.975s8.358 3.454 10.433 5.975C93.37 55.128 100 54.713 100 54.713v5a3.466 3.466 0 0 1-3.465 3.465Z"/><path fill="#EA8577" d="M96.535 58.178c-5.516 0-8.358-3.454-10.433-5.975-1.917-2.331-2.935-3.45-5.082-3.45s-3.164 1.119-5.081 3.449c-2.075 2.522-4.918 5.976-10.433 5.976s-8.357-3.454-10.432-5.978c-1.917-2.33-2.934-3.449-5.081-3.449s-3.162 1.119-5.079 3.449c-2.076 2.524-4.914 5.978-10.432 5.978s-8.355-3.455-10.43-5.976c-1.915-2.33-2.932-3.449-5.077-3.449S15.814 49.872 13.9 52.2c-2.076 2.521-4.917 5.976-10.432 5.976a3.466 3.466 0 0 1 0-6.931c2.147 0 3.163-1.119 5.079-3.449 2.076-2.522 4.918-5.976 10.431-5.976s8.355 3.455 10.43 5.976c1.916 2.33 2.932 3.449 5.077 3.449s3.163-1.119 5.079-3.449c2.076-2.522 4.918-5.976 10.432-5.976s8.354 3.456 10.429 5.98c1.917 2.33 2.935 3.449 5.081 3.449s3.165-1.119 5.082-3.45c2.075-2.521 4.918-5.975 10.432-5.975s8.358 3.454 10.433 5.975c1.917 2.331 2.934 3.45 5.082 3.45a3.466 3.466 0 0 1 0 6.931Z"/></svg><svg xmlns="http://www.w3.org/2000/svg" width="24.64" height="24.64" data-name="Layer 1" transform="rotate(90 209.44 640.64)" viewBox="0 0 100 100"><path fill="#F7B801" d="M15.284 15.284H100V100H15.284z"/><path fill="none" stroke="#54C491" stroke-miterlimit="10" stroke-width="6" d="M3 3h84.716v84.716H3z"/></svg><svg xmlns="http://www.w3.org/2000/svg" width="24.64" height="24.64" data-name="Layer 1" transform="rotate(90 110.88 640.64)" viewBox="0 0 100 100"><path fill="#F7B801" d="M15.284 15.284H100V100H15.284z"/><path fill="none" stroke="#54C491" stroke-miterlimit="10" stroke-width="6" d="M3 3h84.716v84.716H3z"/></svg><svg xmlns="http://www.w3.org/2000/svg" width="24.64" height="24.64" data-name="Layer 1" transform="translate(825.44 529.76)" viewBox="0 0 100 100"><path fill="#99D120" d="M12.94 76.735a43.53 43.53 0 1 1 87.06 0"/><path fill="none" stroke="#98D345" stroke-linecap="round" stroke-miterlimit="10" stroke-width="6" d="M90.06 66.8A43.53 43.53 0 0 0 3 66.8Z"/></svg><svg xmlns="http://www.w3.org/2000/svg" width="24.64" height="24.64" data-name="Layer 1" transform="rotate(-90 689.92 -234.08)" viewBox="0 0 100 100"><circle cx="50" cy="50" r="50" fill="#3D348B"/></svg><svg xmlns="http://www.w3.org/2000/svg" width="24.64" height="24.64" data-name="Layer 1" transform="rotate(90 308 739.2)" viewBox="0 0 100 100"><path fill="#99D120" d="M12.94 76.735a43.53 43.53 0 1 1 87.06 0"/><path fill="none" stroke="#98D345" stroke-linecap="round" stroke-miterlimit="10" stroke-width="6" d="M90.06 66.8A43.53 43.53 0 0 0 3 66.8Z"/></svg><svg xmlns="http://www.w3.org/2000/svg" width="24.64" height="24.64" data-name="Layer 1" transform="rotate(90 357.28 788.48)" viewBox="0 0 100 100"><path fill="#99D120" d="M12.94 76.735a43.53 43.53 0 1 1 87.06 0"/><path fill="none" stroke="#98D345" stroke-linecap="round" stroke-miterlimit="10" stroke-width="6" d="M90.06 66.8A43.53 43.53 0 0 0 3 66.8Z"/></svg><svg xmlns="http://www.w3.org/2000/svg" width="24.64" height="24.64" data-name="Layer 1" transform="rotate(-90 788.48 -234.08)" viewBox="0 0 100 100"><path fill="#EE6197" d="M96.535 63.178c-5.516 0-8.358-3.454-10.433-5.975-1.917-2.331-2.935-3.45-5.082-3.45s-3.164 1.119-5.081 3.449c-2.075 2.522-4.918 5.976-10.433 5.976s-8.357-3.454-10.432-5.978c-1.917-2.33-2.934-3.449-5.081-3.449s-3.162 1.119-5.079 3.449c-2.076 2.524-4.914 5.978-10.432 5.978s-8.355-3.455-10.43-5.976c-1.915-2.33-2.932-3.449-5.077-3.449S15.814 54.872 13.9 57.2c-2.076 2.521-4.917 5.976-10.432 5.976A3.466 3.466 0 0 1 0 59.713v-5s6.628.415 8.544-1.915c2.076-2.522 4.918-5.976 10.431-5.976s8.355 3.455 10.43 5.976c1.916 2.33 2.932 3.449 5.077 3.449s3.163-1.119 5.079-3.449c2.076-2.522 4.918-5.976 10.432-5.976s8.357 3.454 10.432 5.978c1.917 2.33 2.935 3.449 5.081 3.449s3.165-1.119 5.082-3.45c2.075-2.521 4.918-5.975 10.432-5.975s8.358 3.454 10.433 5.975C93.37 55.128 100 54.713 100 54.713v5a3.466 3.466 0 0 1-3.465 3.465Z"/><path fill="#EA8577" d="M96.535 58.178c-5.516 0-8.358-3.454-10.433-5.975-1.917-2.331-2.935-3.45-5.082-3.45s-3.164 1.119-5.081 3.449c-2.075 2.522-4.918 5.976-10.433 5.976s-8.357-3.454-10.432-5.978c-1.917-2.33-2.934-3.449-5.081-3.449s-3.162 1.119-5.079 3.449c-2.076 2.524-4.914 5.978-10.432 5.978s-8.355-3.455-10.43-5.976c-1.915-2.33-2.932-3.449-5.077-3.449S15.814 49.872 13.9 52.2c-2.076 2.521-4.917 5.976-10.432 5.976a3.466 3.466 0 0 1 0-6.931c2.147 0 3.163-1.119 5.079-3.449 2.076-2.522 4.918-5.976 10.431-5.976s8.355 3.455 10.43 5.976c1.916 2.33 2.932 3.449 5.077 3.449s3.163-1.119 5.079-3.449c2.076-2.522 4.918-5.976 10.432-5.976s8.354 3.456 10.429 5.98c1.917 2.33 2.935 3.449 5.081 3.449s3.165-1.119 5.082-3.45c2.075-2.521 4.918-5.975 10.432-5.975s8.358 3.454 10.433 5.975c1.917 2.331 2.934 3.45 5.082 3.45a3.466 3.466 0 0 1 0 6.931Z"/></svg><svg xmlns="http://www.w3.org/2000/svg" width="24.64" height="24.64" data-name="Layer 1" transform="rotate(90 -283.36 344.96)" viewBox="0 0 100 100"><path fill="#F7B801" d="M15.284 15.284H100V100H15.284z"/><path fill="none" stroke="#54C491" stroke-miterlimit="10" stroke-width="6" d="M3 3h84.716v84.716H3z"/></svg><svg xmlns="http://www.w3.org/2000/svg" width="24.64" height="24.64" data-name="Layer 1" transform="translate(135.52 628.32)" viewBox="0 0 100 100"><path fill="#480CDD" d="M50 .5A49.5 49.5 0 1 0 99.5 50 49.562 49.562 0 0 0 50 .5ZM33.59 92.44l58.84-58.87a43.807 43.807 0 0 1 2.21 7.64L41.21 94.64a44.449 44.449 0 0 1-7.62-2.2ZM15.48 79.61l64.17-64.1a46.076 46.076 0 0 1 4.84 4.84l-64.1 64.17a45.525 45.525 0 0 1-4.91-4.91ZM36.41 6.58 6.57 36.44A45.645 45.645 0 0 1 36.41 6.58ZM50 4.5c1.29 0 2.57.05 3.84.16L4.66 53.83c-.11-1.26-.16-2.54-.16-3.83a46.241 46.241 0 0 1 .43-6.26L43.7 4.94A45.139 45.139 0 0 1 50 4.5ZM32.075 32.075 58.79 5.36a43.807 43.807 0 0 1 7.64 2.21L7.56 66.41a44.449 44.449 0 0 1-2.2-7.62ZM9.29 70.33 70.35 9.3a45.9 45.9 0 0 1 6.13 3.72L12.99 76.45a46.727 46.727 0 0 1-3.7-6.12Zm14.26 16.68 63.43-63.49a45.9 45.9 0 0 1 3.72 6.13L29.67 90.71a46.727 46.727 0 0 1-6.12-3.7Zm71.79-40.85c.11 1.27.16 2.55.16 3.84a45.139 45.139 0 0 1-.44 6.3l-38.8 38.77a46.241 46.241 0 0 1-6.26.43c-1.29 0-2.57-.05-3.83-.16ZM63.57 93.43 93.42 63.6a45.657 45.657 0 0 1-29.85 29.83Z"/></svg><svg xmlns="http://www.w3.org/2000/svg" width="24.64" height="24.64" data-name="Layer 1" transform="rotate(-90 443.52 209.44)" viewBox="0 0 100 100"><circle cx="56.47" cy="56.47" r="43.53" fill="#F18701"/><circle cx="46.53" cy="46.53" r="43.53" fill="none" stroke="#C9CB38" stroke-linecap="round" stroke-linejoin="round" stroke-width="6"/></svg><svg xmlns="http://www.w3.org/2000/svg" width="24.64" height="24.64" data-name="Layer 1" transform="rotate(180 80.08 375.76)" viewBox="0 0 100 100"><path fill="#F7B801" d="M15.284 15.284H100V100H15.284z"/><path fill="none" stroke="#54C491" stroke-miterlimit="10" stroke-width="6" d="M3 3h84.716v84.716H3z"/></svg><svg xmlns="http://www.w3.org/2000/svg" width="24.64" height="24.64" data-name="Layer 1" transform="rotate(90 -234.08 492.8)" viewBox="0 0 100 100"><path fill="#99D120" d="M12.94 76.735a43.53 43.53 0 1 1 87.06 0"/><path fill="none" stroke="#98D345" stroke-linecap="round" stroke-miterlimit="10" stroke-width="6" d="M90.06 66.8A43.53 43.53 0 0 0 3 66.8Z"/></svg><svg xmlns="http://www.w3.org/2000/svg" width="24.64" height="24.64" data-name="Layer 1" transform="translate(332.64 628.32)" viewBox="0 0 100 100"><circle cx="50" cy="50" r="50" fill="#3D348B"/></svg><svg xmlns="http://www.w3.org/2000/svg" width="24.64" height="24.64" data-name="Layer 1" transform="translate(431.2 628.32)" viewBox="0 0 100 100"><path fill="#480CDD" d="M50 .5A49.5 49.5 0 1 0 99.5 50 49.562 49.562 0 0 0 50 .5ZM33.59 92.44l58.84-58.87a43.807 43.807 0 0 1 2.21 7.64L41.21 94.64a44.449 44.449 0 0 1-7.62-2.2ZM15.48 79.61l64.17-64.1a46.076 46.076 0 0 1 4.84 4.84l-64.1 64.17a45.525 45.525 0 0 1-4.91-4.91ZM36.41 6.58 6.57 36.44A45.645 45.645 0 0 1 36.41 6.58ZM50 4.5c1.29 0 2.57.05 3.84.16L4.66 53.83c-.11-1.26-.16-2.54-.16-3.83a46.241 46.241 0 0 1 .43-6.26L43.7 4.94A45.139 45.139 0 0 1 50 4.5ZM32.075 32.075 58.79 5.36a43.807 43.807 0 0 1 7.64 2.21L7.56 66.41a44.449 44.449 0 0 1-2.2-7.62ZM9.29 70.33 70.35 9.3a45.9 45.9 0 0 1 6.13 3.72L12.99 76.45a46.727 46.727 0 0 1-3.7-6.12Zm14.26 16.68 63.43-63.49a45.9 45.9 0 0 1 3.72 6.13L29.67 90.71a46.727 46.727 0 0 1-6.12-3.7Zm71.79-40.85c.11 1.27.16 2.55.16 3.84a45.139 45.139 0 0 1-.44 6.3l-38.8 38.77a46.241 46.241 0 0 1-6.26.43c-1.29 0-2.57-.05-3.83-.16ZM63.57 93.43 93.42 63.6a45.657 45.657 0 0 1-29.85 29.83Z"/></svg><svg xmlns="http://www.w3.org/2000/svg" width="24.64" height="24.64" data-name="Layer 1" transform="rotate(90 -135.52 591.36)" viewBox="0 0 100 100"><path fill="#EE6197" d="M96.535 63.178c-5.516 0-8.358-3.454-10.433-5.975-1.917-2.331-2.935-3.45-5.082-3.45s-3.164 1.119-5.081 3.449c-2.075 2.522-4.918 5.976-10.433 5.976s-8.357-3.454-10.432-5.978c-1.917-2.33-2.934-3.449-5.081-3.449s-3.162 1.119-5.079 3.449c-2.076 2.524-4.914 5.978-10.432 5.978s-8.355-3.455-10.43-5.976c-1.915-2.33-2.932-3.449-5.077-3.449S15.814 54.872 13.9 57.2c-2.076 2.521-4.917 5.976-10.432 5.976A3.466 3.466 0 0 1 0 59.713v-5s6.628.415 8.544-1.915c2.076-2.522 4.918-5.976 10.431-5.976s8.355 3.455 10.43 5.976c1.916 2.33 2.932 3.449 5.077 3.449s3.163-1.119 5.079-3.449c2.076-2.522 4.918-5.976 10.432-5.976s8.357 3.454 10.432 5.978c1.917 2.33 2.935 3.449 5.081 3.449s3.165-1.119 5.082-3.45c2.075-2.521 4.918-5.975 10.432-5.975s8.358 3.454 10.433 5.975C93.37 55.128 100 54.713 100 54.713v5a3.466 3.466 0 0 1-3.465 3.465Z"/><path fill="#EA8577" d="M96.535 58.178c-5.516 0-8.358-3.454-10.433-5.975-1.917-2.331-2.935-3.45-5.082-3.45s-3.164 1.119-5.081 3.449c-2.075 2.522-4.918 5.976-10.433 5.976s-8.357-3.454-10.432-5.978c-1.917-2.33-2.934-3.449-5.081-3.449s-3.162 1.119-5.079 3.449c-2.076 2.524-4.914 5.978-10.432 5.978s-8.355-3.455-10.43-5.976c-1.915-2.33-2.932-3.449-5.077-3.449S15.814 49.872 13.9 52.2c-2.076 2.521-4.917 5.976-10.432 5.976a3.466 3.466 0 0 1 0-6.931c2.147 0 3.163-1.119 5.079-3.449 2.076-2.522 4.918-5.976 10.431-5.976s8.355 3.455 10.43 5.976c1.916 2.33 2.932 3.449 5.077 3.449s3.163-1.119 5.079-3.449c2.076-2.522 4.918-5.976 10.432-5.976s8.354 3.456 10.429 5.98c1.917 2.33 2.935 3.449 5.081 3.449s3.165-1.119 5.082-3.45c2.075-2.521 4.918-5.975 10.432-5.975s8.358 3.454 10.433 5.975c1.917 2.331 2.934 3.45 5.082 3.45a3.466 3.466 0 0 1 0 6.931Z"/></svg><svg xmlns="http://www.w3.org/2000/svg" width="24.64" height="24.64" data-name="Layer 1" transform="rotate(90 -86.24 640.64)" viewBox="0 0 100 100"><circle cx="56.47" cy="56.47" r="43.53" fill="#F18701"/><circle cx="46.53" cy="46.53" r="43.53" fill="none" stroke="#C9CB38" stroke-linecap="round" stroke-linejoin="round" stroke-width="6"/></svg><svg xmlns="http://www.w3.org/2000/svg" width="24.64" height="24.64" data-name="Layer 1" transform="rotate(90 12.32 640.64)" viewBox="0 0 100 100"><circle cx="50" cy="50" r="50" fill="#3D348B"/></svg><svg xmlns="http://www.w3.org/2000/svg" width="24.64" height="24.64" data-name="Layer 1" transform="rotate(180 375.76 326.48)" viewBox="0 0 100 100"><path fill="#480CDD" d="M50 .5A49.5 49.5 0 1 0 99.5 50 49.562 49.562 0 0 0 50 .5ZM33.59 92.44l58.84-58.87a43.807 43.807 0 0 1 2.21 7.64L41.21 94.64a44.449 44.449 0 0 1-7.62-2.2ZM15.48 79.61l64.17-64.1a46.076 46.076 0 0 1 4.84 4.84l-64.1 64.17a45.525 45.525 0 0 1-4.91-4.91ZM36.41 6.58 6.57 36.44A45.645 45.645 0 0 1 36.41 6.58ZM50 4.5c1.29 0 2.57.05 3.84.16L4.66 53.83c-.11-1.26-.16-2.54-.16-3.83a46.241 46.241 0 0 1 .43-6.26L43.7 4.94A45.139 45.139 0 0 1 50 4.5ZM32.075 32.075 58.79 5.36a43.807 43.807 0 0 1 7.64 2.21L7.56 66.41a44.449 44.449 0 0 1-2.2-7.62ZM9.29 70.33 70.35 9.3a45.9 45.9 0 0 1 6.13 3.72L12.99 76.45a46.727 46.727 0 0 1-3.7-6.12Zm14.26 16.68 63.43-63.49a45.9 45.9 0 0 1 3.72 6.13L29.67 90.71a46.727 46.727 0 0 1-6.12-3.7Zm71.79-40.85c.11 1.27.16 2.55.16 3.84a45.139 45.139 0 0 1-.44 6.3l-38.8 38.77a46.241 46.241 0 0 1-6.26.43c-1.29 0-2.57-.05-3.83-.16ZM63.57 93.43 93.42 63.6a45.657 45.657 0 0 1-29.85 29.83Z"/></svg><svg xmlns="http://www.w3.org/2000/svg" width="24.64" height="24.64" data-name="Layer 1" transform="translate(825.44 628.32)" viewBox="0 0 100 100"><path fill="#F7B801" d="M15.284 15.284H100V100H15.284z"/><path fill="none" stroke="#54C491" stroke-miterlimit="10" stroke-width="6" d="M3 3h84.716v84.716H3z"/></svg><svg xmlns="http://www.w3.org/2000/svg" width="24.64" height="24.64" data-name="Layer 1" transform="rotate(180 375.76 375.76)" viewBox="0 0 100 100"><circle cx="56.47" cy="56.47" r="43.53" fill="#F18701"/><circle cx="46.53" cy="46.53" r="43.53" fill="none" stroke="#C9CB38" stroke-linecap="round" stroke-linejoin="round" stroke-width="6"/></svg><svg xmlns="http://www.w3.org/2000/svg" width="24.64" height="24.64" data-name="Layer 1" transform="rotate(-90 788.48 -36.96)" viewBox="0 0 100 100"><circle cx="50" cy="50" r="50" fill="#3D348B"/></svg><svg xmlns="http://www.w3.org/2000/svg" width="24.64" height="24.64" data-name="Layer 1" transform="translate(924 628.32)" viewBox="0 0 100 100"><path fill="#EE6197" d="M96.535 63.178c-5.516 0-8.358-3.454-10.433-5.975-1.917-2.331-2.935-3.45-5.082-3.45s-3.164 1.119-5.081 3.449c-2.075 2.522-4.918 5.976-10.433 5.976s-8.357-3.454-10.432-5.978c-1.917-2.33-2.934-3.449-5.081-3.449s-3.162 1.119-5.079 3.449c-2.076 2.524-4.914 5.978-10.432 5.978s-8.355-3.455-10.43-5.976c-1.915-2.33-2.932-3.449-5.077-3.449S15.814 54.872 13.9 57.2c-2.076 2.521-4.917 5.976-10.432 5.976A3.466 3.466 0 0 1 0 59.713v-5s6.628.415 8.544-1.915c2.076-2.522 4.918-5.976 10.431-5.976s8.355 3.455 10.43 5.976c1.916 2.33 2.932 3.449 5.077 3.449s3.163-1.119 5.079-3.449c2.076-2.522 4.918-5.976 10.432-5.976s8.357 3.454 10.432 5.978c1.917 2.33 2.935 3.449 5.081 3.449s3.165-1.119 5.082-3.45c2.075-2.521 4.918-5.975 10.432-5.975s8.358 3.454 10.433 5.975C93.37 55.128 100 54.713 100 54.713v5a3.466 3.466 0 0 1-3.465 3.465Z"/><path fill="#EA8577" d="M96.535 58.178c-5.516 0-8.358-3.454-10.433-5.975-1.917-2.331-2.935-3.45-5.082-3.45s-3.164 1.119-5.081 3.449c-2.075 2.522-4.918 5.976-10.433 5.976s-8.357-3.454-10.432-5.978c-1.917-2.33-2.934-3.449-5.081-3.449s-3.162 1.119-5.079 3.449c-2.076 2.524-4.914 5.978-10.432 5.978s-8.355-3.455-10.43-5.976c-1.915-2.33-2.932-3.449-5.077-3.449S15.814 49.872 13.9 52.2c-2.076 2.521-4.917 5.976-10.432 5.976a3.466 3.466 0 0 1 0-6.931c2.147 0 3.163-1.119 5.079-3.449 2.076-2.522 4.918-5.976 10.431-5.976s8.355 3.455 10.43 5.976c1.916 2.33 2.932 3.449 5.077 3.449s3.163-1.119 5.079-3.449c2.076-2.522 4.918-5.976 10.432-5.976s8.354 3.456 10.429 5.98c1.917 2.33 2.935 3.449 5.081 3.449s3.165-1.119 5.082-3.45c2.075-2.521 4.918-5.975 10.432-5.975s8.358 3.454 10.433 5.975c1.917 2.331 2.934 3.45 5.082 3.45a3.466 3.466 0 0 1 0 6.931Z"/></svg><svg xmlns="http://www.w3.org/2000/svg" width="24.64" height="24.64" data-name="Layer 1" transform="translate(1022.56 628.32)" viewBox="0 0 100 100"><path fill="#480CDD" d="M50 .5A49.5 49.5 0 1 0 99.5 50 49.562 49.562 0 0 0 50 .5ZM33.59 92.44l58.84-58.87a43.807 43.807 0 0 1 2.21 7.64L41.21 94.64a44.449 44.449 0 0 1-7.62-2.2ZM15.48 79.61l64.17-64.1a46.076 46.076 0 0 1 4.84 4.84l-64.1 64.17a45.525 45.525 0 0 1-4.91-4.91ZM36.41 6.58 6.57 36.44A45.645 45.645 0 0 1 36.41 6.58ZM50 4.5c1.29 0 2.57.05 3.84.16L4.66 53.83c-.11-1.26-.16-2.54-.16-3.83a46.241 46.241 0 0 1 .43-6.26L43.7 4.94A45.139 45.139 0 0 1 50 4.5ZM32.075 32.075 58.79 5.36a43.807 43.807 0 0 1 7.64 2.21L7.56 66.41a44.449 44.449 0 0 1-2.2-7.62ZM9.29 70.33 70.35 9.3a45.9 45.9 0 0 1 6.13 3.72L12.99 76.45a46.727 46.727 0 0 1-3.7-6.12Zm14.26 16.68 63.43-63.49a45.9 45.9 0 0 1 3.72 6.13L29.67 90.71a46.727 46.727 0 0 1-6.12-3.7Zm71.79-40.85c.11 1.27.16 2.55.16 3.84a45.139 45.139 0 0 1-.44 6.3l-38.8 38.77a46.241 46.241 0 0 1-6.26.43c-1.29 0-2.57-.05-3.83-.16ZM63.57 93.43 93.42 63.6a45.657 45.657 0 0 1-29.85 29.83Z"/></svg><svg xmlns="http://www.w3.org/2000/svg" width="24.64" height="24.64" data-name="Layer 1" transform="rotate(90 110.88 837.76)" viewBox="0 0 100 100"><path fill="#EE6197" d="M96.535 63.178c-5.516 0-8.358-3.454-10.433-5.975-1.917-2.331-2.935-3.45-5.082-3.45s-3.164 1.119-5.081 3.449c-2.075 2.522-4.918 5.976-10.433 5.976s-8.357-3.454-10.432-5.978c-1.917-2.33-2.934-3.449-5.081-3.449s-3.162 1.119-5.079 3.449c-2.076 2.524-4.914 5.978-10.432 5.978s-8.355-3.455-10.43-5.976c-1.915-2.33-2.932-3.449-5.077-3.449S15.814 54.872 13.9 57.2c-2.076 2.521-4.917 5.976-10.432 5.976A3.466 3.466 0 0 1 0 59.713v-5s6.628.415 8.544-1.915c2.076-2.522 4.918-5.976 10.431-5.976s8.355 3.455 10.43 5.976c1.916 2.33 2.932 3.449 5.077 3.449s3.163-1.119 5.079-3.449c2.076-2.522 4.918-5.976 10.432-5.976s8.357 3.454 10.432 5.978c1.917 2.33 2.935 3.449 5.081 3.449s3.165-1.119 5.082-3.45c2.075-2.521 4.918-5.975 10.432-5.975s8.358 3.454 10.433 5.975C93.37 55.128 100 54.713 100 54.713v5a3.466 3.466 0 0 1-3.465 3.465Z"/><path fill="#EA8577" d="M96.535 58.178c-5.516 0-8.358-3.454-10.433-5.975-1.917-2.331-2.935-3.45-5.082-3.45s-3.164 1.119-5.081 3.449c-2.075 2.522-4.918 5.976-10.433 5.976s-8.357-3.454-10.432-5.978c-1.917-2.33-2.934-3.449-5.081-3.449s-3.162 1.119-5.079 3.449c-2.076 2.524-4.914 5.978-10.432 5.978s-8.355-3.455-10.43-5.976c-1.915-2.33-2.932-3.449-5.077-3.449S15.814 49.872 13.9 52.2c-2.076 2.521-4.917 5.976-10.432 5.976a3.466 3.466 0 0 1 0-6.931c2.147 0 3.163-1.119 5.079-3.449 2.076-2.522 4.918-5.976 10.431-5.976s8.355 3.455 10.43 5.976c1.916 2.33 2.932 3.449 5.077 3.449s3.163-1.119 5.079-3.449c2.076-2.522 4.918-5.976 10.432-5.976s8.354 3.456 10.429 5.98c1.917 2.33 2.935 3.449 5.081 3.449s3.165-1.119 5.082-3.45c2.075-2.521 4.918-5.975 10.432-5.975s8.358 3.454 10.433 5.975c1.917 2.331 2.934 3.45 5.082 3.45a3.466 3.466 0 0 1 0 6.931Z"/></svg><svg xmlns="http://www.w3.org/2000/svg" width="24.64" height="24.64" data-name="Layer 1" transform="translate(1022.56 726.88)" viewBox="0 0 100 100"><path fill="#F7B801" d="M15.284 15.284H100V100H15.284z"/><path fill="none" stroke="#54C491" stroke-miterlimit="10" stroke-width="6" d="M3 3h84.716v84.716H3z"/></svg><svg xmlns="http://www.w3.org/2000/svg" width="24.64" height="24.64" data-name="Layer 1" transform="rotate(90 209.44 936.32)" viewBox="0 0 100 100"><path fill="#EE6197" d="M96.535 63.178c-5.516 0-8.358-3.454-10.433-5.975-1.917-2.331-2.935-3.45-5.082-3.45s-3.164 1.119-5.081 3.449c-2.075 2.522-4.918 5.976-10.433 5.976s-8.357-3.454-10.432-5.978c-1.917-2.33-2.934-3.449-5.081-3.449s-3.162 1.119-5.079 3.449c-2.076 2.524-4.914 5.978-10.432 5.978s-8.355-3.455-10.43-5.976c-1.915-2.33-2.932-3.449-5.077-3.449S15.814 54.872 13.9 57.2c-2.076 2.521-4.917 5.976-10.432 5.976A3.466 3.466 0 0 1 0 59.713v-5s6.628.415 8.544-1.915c2.076-2.522 4.918-5.976 10.431-5.976s8.355 3.455 10.43 5.976c1.916 2.33 2.932 3.449 5.077 3.449s3.163-1.119 5.079-3.449c2.076-2.522 4.918-5.976 10.432-5.976s8.357 3.454 10.432 5.978c1.917 2.33 2.935 3.449 5.081 3.449s3.165-1.119 5.082-3.45c2.075-2.521 4.918-5.975 10.432-5.975s8.358 3.454 10.433 5.975C93.37 55.128 100 54.713 100 54.713v5a3.466 3.466 0 0 1-3.465 3.465Z"/><path fill="#EA8577" d="M96.535 58.178c-5.516 0-8.358-3.454-10.433-5.975-1.917-2.331-2.935-3.45-5.082-3.45s-3.164 1.119-5.081 3.449c-2.075 2.522-4.918 5.976-10.433 5.976s-8.357-3.454-10.432-5.978c-1.917-2.33-2.934-3.449-5.081-3.449s-3.162 1.119-5.079 3.449c-2.076 2.524-4.914 5.978-10.432 5.978s-8.355-3.455-10.43-5.976c-1.915-2.33-2.932-3.449-5.077-3.449S15.814 49.872 13.9 52.2c-2.076 2.521-4.917 5.976-10.432 5.976a3.466 3.466 0 0 1 0-6.931c2.147 0 3.163-1.119 5.079-3.449 2.076-2.522 4.918-5.976 10.431-5.976s8.355 3.455 10.43 5.976c1.916 2.33 2.932 3.449 5.077 3.449s3.163-1.119 5.079-3.449c2.076-2.522 4.918-5.976 10.432-5.976s8.354 3.456 10.429 5.98c1.917 2.33 2.935 3.449 5.081 3.449s3.165-1.119 5.082-3.45c2.075-2.521 4.918-5.975 10.432-5.975s8.358 3.454 10.433 5.975c1.917 2.331 2.934 3.45 5.082 3.45a3.466 3.466 0 0 1 0 6.931Z"/></svg></svg>